<?xml version="1.0" encoding="UTF-8"?>
<svg xmlns="http://www.w3.org/2000/svg" xmlns:xlink="http://www.w3.org/1999/xlink" viewBox="0 0 50 50" version="1.1" fill="#000000" width="50px" height="50px">
<g id="surface1" fill="#ffffff">
<path style=" " d="M 43.03125 11 C 42.722656 11.003906 42.386719 11.03125 42.0625 11.0625 C 40.757813 11.183594 39.332031 11.507813 37.875 12.15625 C 37.875 12.15625 32.265625 14.675781 27.625 16.75 L 16.34375 13.28125 C 15.589844 13.050781 14.773438 12.949219 14 12.9375 C 13.226563 12.925781 12.527344 12.992188 11.875 13.28125 L 10.3125 13.96875 C 10.050781 14.085938 9.734375 14.273438 9.5625 14.65625 C 9.390625 15.039063 9.441406 15.503906 9.59375 15.8125 C 9.890625 16.414063 10.375 16.726563 11.0625 17.09375 L 11.09375 17.125 L 17.71875 21.15625 C 14.382813 22.648438 9.867188 24.671875 9.625 24.78125 C 9.414063 24.875 9.414063 24.839844 9.25 24.78125 C 9.085938 24.722656 8.789063 24.535156 8.40625 24.25 C 7.050781 23.25 5.046875 21.792969 4.46875 21.34375 C 3.578125 20.664063 2.519531 20.65625 1.5625 20.96875 C 1.085938 21.125 0.601563 21.386719 0.28125 21.90625 C -0.0390625 22.425781 -0.0820313 23.179688 0.1875 23.78125 C 0.855469 25.28125 2.964844 29.921875 3.75 31.6875 C 4.175781 32.644531 5.066406 33.304688 6.15625 33.59375 C 7.246094 33.882813 8.558594 33.871094 10.125 33.65625 C 13.257813 33.222656 17.472656 31.867188 22.78125 29.5 C 23.199219 29.3125 23.679688 29.105469 24.125 28.90625 L 21.8125 41.125 L 21.8125 41.1875 C 21.628906 41.933594 21.535156 42.507813 21.78125 43.125 C 21.910156 43.441406 22.226563 43.777344 22.625 43.90625 C 23.023438 44.035156 23.363281 43.957031 23.625 43.84375 L 25.1875 43.15625 C 25.835938 42.867188 26.367188 42.367188 26.875 41.78125 C 27.382813 41.195313 27.859375 40.496094 28.1875 39.78125 L 28.15625 39.78125 L 35.59375 23.6875 C 39.304688 21.949219 42.867188 20.21875 45.46875 18.75 C 46.808594 17.992188 47.90625 17.304688 48.6875 16.6875 C 49.078125 16.378906 49.375 16.097656 49.625 15.75 C 49.875 15.402344 50.148438 14.832031 49.875 14.21875 C 49.253906 12.828125 47.699219 11.796875 45.59375 11.28125 C 44.804688 11.089844 43.960938 10.984375 43.03125 11 Z M 43.03125 13 C 43.796875 13 44.5 13.097656 45.125 13.25 C 46.566406 13.601563 47.445313 14.304688 47.8125 14.78125 C 47.710938 14.886719 47.636719 14.96875 47.4375 15.125 C 46.816406 15.617188 45.796875 16.269531 44.5 17 C 41.910156 18.460938 38.257813 20.246094 34.4375 22.03125 L 34.09375 22.1875 L 33.9375 22.53125 L 26.34375 38.96875 C 26.113281 39.472656 25.765625 40.019531 25.375 40.46875 C 24.984375 40.917969 24.53125 41.242188 24.375 41.3125 L 23.75 41.59375 L 23.75 41.5625 L 26.40625 27.40625 L 26.78125 25.53125 L 25.03125 26.3125 C 23.949219 26.796875 22.925781 27.261719 21.96875 27.6875 C 16.761719 30.007813 12.683594 31.300781 9.875 31.6875 C 8.472656 31.882813 7.382813 31.839844 6.6875 31.65625 C 5.992188 31.472656 5.714844 31.214844 5.5625 30.875 C 4.773438 29.109375 2.695313 24.464844 2.03125 22.96875 C 2.015625 22.929688 2.007813 22.945313 2 22.9375 C 2.035156 22.910156 2.101563 22.871094 2.1875 22.84375 C 2.53125 22.730469 3.164063 22.871094 3.25 22.9375 L 3.25 22.90625 C 3.902344 23.410156 5.859375 24.875 7.21875 25.875 C 7.617188 26.167969 8.019531 26.488281 8.5625 26.6875 C 9.105469 26.886719 9.8125 26.875 10.4375 26.59375 C 10.722656 26.46875 15.738281 24.210938 20.0625 22.28125 C 20.097656 22.265625 20.121094 22.296875 20.15625 22.28125 C 20.253906 22.253906 20.351563 22.210938 20.4375 22.15625 C 20.453125 22.148438 20.453125 22.132813 20.46875 22.125 C 20.480469 22.113281 20.488281 22.105469 20.5 22.09375 C 23.832031 20.609375 24.398438 20.351563 27.78125 18.84375 C 27.8125 18.835938 27.84375 18.824219 27.875 18.8125 C 27.886719 18.808594 27.894531 18.816406 27.90625 18.8125 C 28.117188 18.789063 28.3125 18.703125 28.46875 18.5625 C 28.480469 18.550781 28.488281 18.542969 28.5 18.53125 C 33.097656 16.484375 38.6875 14 38.6875 14 C 39.953125 13.4375 41.167969 13.132813 42.25 13.03125 C 42.519531 13.007813 42.777344 13 43.03125 13 Z M 13.96875 14.9375 C 14.5625 14.949219 15.21875 15.023438 15.75 15.1875 L 24.875 17.96875 C 22.480469 19.039063 22.234375 19.144531 19.96875 20.15625 L 12.09375 15.375 L 12.6875 15.09375 C 12.84375 15.023438 13.375 14.925781 13.96875 14.9375 Z " fill="#ffffff"/>
</g>
</svg>
