<?xml version="1.0" encoding="UTF-8"?>
<svg xmlns="http://www.w3.org/2000/svg" xmlns:xlink="http://www.w3.org/1999/xlink" viewBox="0 0 50 50" version="1.1" fill="#000000" width="50px" height="50px">
<g id="surface1" fill="#000000">
<path style=" " d="M 35 2 C 32.03125 2 29.433594 3.730469 28.050781 6.265625 C 27.097656 6.113281 26.132813 6.019531 25.199219 6.007813 L 25.199219 6 L 25 6 C 13.398438 6 4 15.398438 4 27 C 4 38.601563 13.398438 48 25 48 C 36.601563 48 46 38.601563 46 27 C 46 22.511719 44.476563 18.117188 41.839844 14.5625 C 42.535156 12.96875 43 11.5 43 10.402344 C 43 5.800781 39.398438 2 35 2 Z M 35 4 C 38.300781 4 41 6.898438 41 10.402344 C 41 12.800781 37.800781 18.398438 35 22.5 C 32.199219 18.398438 29 12.800781 29 10.402344 C 29 6.898438 31.699219 4 35 4 Z M 35 6 C 32.800781 6 31 7.800781 31 10 C 31 12.199219 32.800781 14 35 14 C 37.199219 14 39 12.199219 39 10 C 39 7.800781 37.199219 6 35 6 Z M 35 8 C 36.117188 8 37 8.882813 37 10 C 37 11.117188 36.117188 12 35 12 C 33.882813 12 33 11.117188 33 10 C 33 8.882813 33.882813 8 35 8 Z M 26 8.046875 C 26.425781 8.066406 26.863281 8.105469 27.300781 8.15625 C 27.113281 8.875 27 9.625 27 10.402344 C 27 11.824219 27.769531 13.863281 28.828125 16 L 26 16 Z M 24 8.132813 L 24 16 L 17.71875 16 C 19.179688 11.746094 21.4375 8.757813 24 8.132813 Z M 19.398438 8.839844 C 17.824219 10.578125 16.519531 13.035156 15.585938 16 L 9.523438 16 C 11.917969 12.640625 15.363281 10.082031 19.398438 8.839844 Z M 40.855469 16.613281 C 42.734375 19.375 43.785156 22.632813 43.960938 26 L 35.992188 26 C 35.988281 25.542969 35.96875 25.101563 35.941406 24.648438 C 37.097656 22.980469 39.160156 19.890625 40.855469 16.613281 Z M 8.265625 18 L 15.03125 18 C 14.445313 20.433594 14.09375 23.128906 14.027344 26 L 6.050781 26 C 6.199219 23.117188 6.96875 20.402344 8.265625 18 Z M 17.109375 18 L 24 18 L 24 26 L 16.027344 26 C 16.101563 23.136719 16.476563 20.414063 17.109375 18 Z M 26 18 L 29.898438 18 C 31.339844 20.589844 32.875 22.929688 33.902344 24.421875 C 33.933594 24.9375 33.953125 25.46875 33.96875 26 L 26 26 Z M 6.050781 28 L 14.027344 28 C 14.09375 30.871094 14.445313 33.566406 15.03125 36 L 8.265625 36 C 6.96875 33.597656 6.199219 30.882813 6.050781 28 Z M 16.027344 28 L 24 28 L 24 36 L 17.109375 36 C 16.476563 33.585938 16.101563 30.863281 16.027344 28 Z M 26 28 L 33.972656 28 C 33.898438 30.863281 33.523438 33.585938 32.890625 36 L 26 36 Z M 35.972656 28 L 43.949219 28 C 43.800781 30.882813 43.03125 33.597656 41.734375 36 L 34.96875 36 C 35.554688 33.566406 35.90625 30.871094 35.972656 28 Z M 9.523438 38 L 15.585938 38 C 16.519531 40.964844 17.824219 43.421875 19.398438 45.160156 C 15.363281 43.917969 11.917969 41.359375 9.523438 38 Z M 17.71875 38 L 24 38 L 24 45.871094 C 21.441406 45.242188 19.179688 42.253906 17.71875 38 Z M 26 38 L 32.28125 38 C 30.820313 42.253906 28.558594 45.242188 26 45.871094 Z M 34.414063 38 L 40.476563 38 C 38.082031 41.359375 34.636719 43.917969 30.601563 45.160156 C 32.175781 43.421875 33.480469 40.964844 34.414063 38 Z " fill="#ffffff"/>
</g>
</svg>
