<?xml version="1.0" encoding="UTF-8"?>
<svg xmlns="http://www.w3.org/2000/svg" xmlns:xlink="http://www.w3.org/1999/xlink" viewBox="0 0 24 24" version="1.1" fill="#000000" width="24px" height="24px">
<g id="surface1" fill="#000000">
<path style=" " d="M 4 4 L 4 8 L 8 8 L 8 4 Z M 10 4 L 10 8 L 14 8 L 14 4 Z M 16 4 L 16 8 L 20 8 L 20 4 Z M 4 10 L 4 14 L 8 14 L 8 10 Z M 10 10 L 10 14 L 14 14 L 14 10 Z M 16 10 L 16 14 L 20 14 L 20 10 Z M 4 16 L 4 20 L 8 20 L 8 16 Z M 10 16 L 10 20 L 14 20 L 14 16 Z M 16 16 L 16 20 L 20 20 L 20 16 Z " fill="#ffffff"/>
</g>
</svg>
