<?xml version="1.0" encoding="UTF-8"?>
<svg xmlns="http://www.w3.org/2000/svg" xmlns:xlink="http://www.w3.org/1999/xlink" viewBox="0 0 50 50" version="1.1" fill="#000000" width="50px" height="50px">
<g id="surface1" fill="#000000">
<path style=" " d="M 21.5 6 C 15.710938 6 11 10.710938 11 16.5 C 11 16.664063 11.003906 16.832031 11.015625 17 L 11 17 C 6.589844 17 3 20.589844 3 25 C 3 27.957031 4.617188 30.535156 7.007813 31.921875 C 7.042969 30.574219 7.96875 29.453125 9.21875 29.113281 C 9.082031 28.769531 9 28.394531 9 28 C 9 26.347656 10.347656 25 12 25 L 17.679688 25 C 17.101563 24.199219 16.929688 23.128906 17.316406 22.140625 C 18.304688 19.625 20.683594 18 23.375 18 C 26.960938 18 29.875 20.914063 29.875 24.5 C 29.875 26.246094 29.179688 27.832031 28.054688 29 L 31 29 C 33.796875 29 36.257813 30.445313 37.6875 32.625 C 41.898438 31.445313 45 27.582031 45 23 C 45 17.484375 40.515625 13 35 13 C 33.820313 13 32.679688 13.203125 31.582031 13.605469 C 30.316406 9.128906 26.261719 6 21.5 6 Z M 23.375 20 C 23.136719 20 22.902344 20.019531 22.671875 20.054688 C 22.625 20.0625 22.582031 20.078125 22.53125 20.089844 C 21.246094 20.332031 20.128906 21.117188 19.46875 22.265625 C 19.46875 22.265625 19.46875 22.269531 19.46875 22.269531 C 19.359375 22.460938 19.261719 22.664063 19.175781 22.875 C 19.128906 22.996094 19.105469 23.132813 19.109375 23.265625 C 19.113281 23.390625 19.140625 23.515625 19.1875 23.632813 C 19.191406 23.636719 19.191406 23.640625 19.191406 23.644531 C 19.242188 23.757813 19.316406 23.859375 19.402344 23.949219 C 19.40625 23.953125 19.410156 23.957031 19.414063 23.957031 C 19.503906 24.046875 19.613281 24.117188 19.730469 24.164063 C 19.734375 24.167969 19.738281 24.167969 19.742188 24.171875 C 19.746094 24.175781 19.753906 24.171875 19.757813 24.171875 C 19.867188 24.214844 19.980469 24.238281 20.09375 24.238281 C 20.097656 24.238281 20.101563 24.238281 20.105469 24.238281 C 20.109375 24.238281 20.113281 24.238281 20.121094 24.238281 C 20.210938 24.238281 20.296875 24.222656 20.386719 24.199219 C 20.394531 24.195313 20.402344 24.195313 20.410156 24.191406 C 20.5 24.164063 20.585938 24.121094 20.664063 24.070313 C 20.664063 24.070313 20.667969 24.066406 20.667969 24.066406 C 20.75 24.011719 20.820313 23.949219 20.882813 23.875 C 20.882813 23.871094 20.886719 23.867188 20.886719 23.863281 C 20.949219 23.789063 21 23.699219 21.039063 23.609375 C 21.039063 23.609375 21.039063 23.605469 21.039063 23.605469 C 21.085938 23.484375 21.140625 23.371094 21.203125 23.261719 C 21.230469 23.21875 21.257813 23.183594 21.28125 23.144531 C 21.347656 23.042969 21.421875 22.949219 21.5 22.859375 C 21.800781 22.515625 22.183594 22.253906 22.621094 22.117188 C 22.734375 22.082031 22.855469 22.050781 22.980469 22.03125 C 23.109375 22.011719 23.242188 22 23.375 22 C 23.714844 22 24.039063 22.070313 24.339844 22.199219 C 24.933594 22.457031 25.417969 22.941406 25.675781 23.535156 C 25.804688 23.835938 25.875 24.160156 25.875 24.5 C 25.875 24.839844 25.804688 25.164063 25.675781 25.464844 C 25.417969 26.058594 24.933594 26.542969 24.339844 26.800781 C 24.039063 26.929688 23.714844 27 23.375 27 L 12 27 C 11.640625 26.996094 11.304688 27.183594 11.121094 27.496094 C 10.941406 27.808594 10.941406 28.191406 11.121094 28.503906 C 11.304688 28.816406 11.640625 29.003906 12 29 L 23.375 29 C 23.449219 29 23.523438 28.992188 23.59375 28.980469 C 23.824219 28.96875 24.058594 28.953125 24.28125 28.90625 C 26.039063 28.546875 27.425781 27.160156 27.78125 25.402344 C 27.84375 25.109375 27.875 24.808594 27.875 24.5 C 27.875 24.191406 27.84375 23.886719 27.78125 23.59375 C 27.421875 21.835938 26.035156 20.449219 24.277344 20.09375 C 23.984375 20.03125 23.683594 20 23.375 20 Z M 10 31 C 9.640625 30.996094 9.304688 31.183594 9.121094 31.496094 C 8.941406 31.808594 8.941406 32.191406 9.121094 32.503906 C 9.304688 32.816406 9.640625 33.003906 10 33 L 31 33 C 33.21875 33 35 34.777344 35 37 C 35 39.214844 33.230469 40.90625 30.96875 40.996094 C 29.257813 41.035156 27.90625 40.050781 27.308594 38.378906 C 27.121094 37.859375 26.546875 37.589844 26.027344 37.773438 C 25.507813 37.960938 25.238281 38.535156 25.421875 39.054688 C 26.28125 41.441406 28.46875 43.058594 31.023438 43 C 31.027344 43 31.03125 43 31.035156 43 C 34.292969 42.875 37 40.300781 37 37 C 37 34.304688 35.199219 32.011719 32.746094 31.261719 C 32.746094 31.261719 32.742188 31.261719 32.742188 31.261719 C 32.734375 31.257813 32.726563 31.257813 32.71875 31.253906 C 32.488281 31.1875 32.246094 31.132813 32.003906 31.09375 C 31.933594 31.078125 31.859375 31.066406 31.789063 31.058594 C 31.566406 31.027344 31.335938 31.011719 31.105469 31.003906 C 31.070313 31.003906 31.035156 31 31 31 Z M 8 35 C 7.640625 34.996094 7.304688 35.183594 7.121094 35.496094 C 6.941406 35.808594 6.941406 36.191406 7.121094 36.503906 C 7.304688 36.816406 7.640625 37.003906 8 37 L 17 37 C 18.085938 37 19 37.914063 19 39 C 19 40.085938 18.085938 41 17 41 C 16.207031 41 15.566406 40.574219 15.253906 39.953125 C 15.007813 39.457031 14.40625 39.257813 13.910156 39.503906 C 13.417969 39.753906 13.21875 40.355469 13.464844 40.847656 C 14.113281 42.144531 15.472656 43 17 43 C 19.191406 43 21 41.191406 21 39 C 21 36.882813 19.308594 35.140625 17.21875 35.019531 C 17.148438 35.007813 17.074219 35 17 35 Z " fill="#ffffff"/>
</g>
</svg>
