<?xml version="1.0" encoding="UTF-8"?>
<svg xmlns="http://www.w3.org/2000/svg" xmlns:xlink="http://www.w3.org/1999/xlink" viewBox="0 0 50 50" version="1.1" fill="#000000" width="50px" height="50px">
<g id="surface1" fill="#ffffff">
<path style=" " d="M 38.5 8.96875 C 38.265625 8.960938 38.035156 8.96875 37.78125 9 L 37.75 9 C 36.488281 9.195313 28.226563 10.414063 19 10.8125 C 18.988281 10.8125 18.980469 10.8125 18.96875 10.8125 C 18.378906 10.8125 17.792969 10.753906 17.125 11.0625 C 16.785156 11.21875 16.441406 11.53125 16.25 11.90625 C 16.058594 12.28125 16 12.667969 16 13.09375 C 16 13.859375 16.457031 14.367188 17 14.78125 C 17.542969 15.195313 18.257813 15.550781 19.21875 15.875 C 19.976563 16.132813 20.929688 16.347656 22 16.53125 L 22 20.09375 L 11.15625 21.15625 L 8.46875 16.6875 C 8.457031 16.675781 8.449219 16.667969 8.4375 16.65625 C 7.621094 15.429688 6.214844 14.8125 4.8125 14.8125 L 1 14.8125 C 0.9375 14.804688 0.875 14.804688 0.8125 14.8125 C 0.535156 14.863281 0.296875 15.027344 0.148438 15.265625 C 0 15.503906 -0.0429688 15.792969 0.03125 16.0625 L 2.9375 26.1875 C 3.230469 27.183594 4.003906 27.757813 5.21875 28.5625 C 6.433594 29.367188 8.136719 30.226563 10.40625 31.03125 C 14.945313 32.640625 21.703125 34 31 34 C 31.222656 34 31.4375 33.972656 31.65625 33.96875 L 33.78125 36.34375 C 33.300781 36.941406 33 37.679688 33 38.5 C 33 40.421875 34.578125 42 36.5 42 C 38.421875 42 40 40.421875 40 38.5 C 40 36.578125 38.421875 35 36.5 35 C 36.113281 35 35.757813 35.070313 35.40625 35.1875 L 34.21875 33.84375 C 38.601563 33.484375 42.164063 32.441406 44.78125 31.0625 C 45.765625 30.542969 46.613281 29.992188 47.34375 29.40625 L 47 32 C 47 32.601563 47.699219 33 48.5 33 C 49.300781 33 50 32.601563 50 32 L 49.4375 27.03125 C 49.789063 26.375 50 25.691406 50 25 C 50 24.332031 49.773438 23.746094 49.40625 23.21875 L 50 18 C 50 17.398438 49.300781 17 48.5 17 C 47.699219 17 47 17.398438 47 18 L 47.4375 21.375 C 46.628906 20.820313 45.707031 20.335938 44.71875 19.90625 C 42.449219 18.921875 39.945313 18.246094 38 18.0625 L 38 15.8125 C 38.78125 15.484375 39.453125 15.039063 39.96875 14.46875 C 40.636719 13.726563 41 12.738281 41 11.6875 C 41 11.015625 40.875 10.25 40.28125 9.65625 C 39.835938 9.210938 39.207031 8.996094 38.5 8.96875 Z M 38.03125 11 C 38.054688 10.996094 38.039063 11.003906 38.0625 11 C 38.6875 10.9375 38.847656 11.035156 38.875 11.0625 C 38.90625 11.09375 39 11.257813 39 11.6875 C 39 12.335938 38.84375 12.742188 38.5 13.125 C 38.15625 13.507813 37.550781 13.898438 36.65625 14.1875 C 34.867188 14.769531 31.957031 15 28.09375 15 C 24.171875 15 21.503906 14.519531 19.875 13.96875 C 19.0625 13.695313 18.507813 13.410156 18.21875 13.1875 C 18.074219 13.078125 18.019531 12.996094 18 12.96875 C 18.007813 12.945313 18.027344 12.886719 18.03125 12.875 C 18.09375 12.859375 18.4375 12.8125 19 12.8125 L 19.03125 12.8125 C 28.371094 12.410156 36.664063 11.210938 38.03125 11 Z M 36 16.40625 L 36 18.71875 C 35.394531 19.949219 34.644531 20.75 33.3125 21.3125 C 31.917969 21.902344 29.847656 22.1875 26.8125 22.1875 C 24.964844 22.1875 24.222656 21.175781 24 20.78125 L 24 16.78125 C 25.214844 16.902344 26.542969 17 28.09375 17 C 31.324219 17 33.941406 16.855469 36 16.40625 Z M 2.34375 16.8125 L 4.8125 16.8125 C 5.59375 16.8125 6.359375 17.164063 6.75 17.71875 C 6.757813 17.730469 6.773438 17.738281 6.78125 17.75 L 9.75 22.71875 C 9.949219 23.039063 10.3125 23.21875 10.6875 23.1875 L 22.5 22.0625 C 22.539063 22.085938 22.582031 22.105469 22.625 22.125 C 22.628906 22.128906 22.652344 22.121094 22.65625 22.125 C 23.191406 22.894531 24.324219 24.1875 26.8125 24.1875 C 29.976563 24.1875 32.289063 23.917969 34.09375 23.15625 C 35.613281 22.515625 36.628906 21.425781 37.40625 20.125 C 37.417969 20.113281 37.425781 20.105469 37.4375 20.09375 C 37.445313 20.082031 37.460938 20.074219 37.46875 20.0625 C 39.03125 20.15625 41.644531 20.769531 43.90625 21.75 C 45.128906 22.28125 46.230469 22.917969 46.96875 23.53125 C 47.4375 23.917969 47.695313 24.269531 47.84375 24.5625 L 47.90625 25 L 47.8125 25.65625 C 47.386719 26.628906 46.140625 28.074219 43.84375 29.28125 C 40.953125 30.804688 36.609375 32 31 32 C 21.898438 32 15.347656 30.671875 11.0625 29.15625 C 8.917969 28.398438 7.351563 27.59375 6.3125 26.90625 C 5.285156 26.226563 4.84375 25.5 4.875 25.625 Z M 36.5 37 C 37.339844 37 38 37.660156 38 38.5 C 38 39.339844 37.339844 40 36.5 40 C 35.660156 40 35 39.339844 35 38.5 C 35 37.660156 35.660156 37 36.5 37 Z " fill="#ffffff"/>
</g>
</svg>
