<?xml version="1.0" encoding="UTF-8"?>
<svg xmlns="http://www.w3.org/2000/svg" xmlns:xlink="http://www.w3.org/1999/xlink" viewBox="0 0 50 50" version="1.1" fill="#000000" width="50px" height="50px">
<g id="surface1" fill="#000000">
<path style=" " d="M 26.5625 1 C 22.636719 1 19.40625 4.132813 19.40625 8 C 19.40625 9.734375 20.070313 11.074219 21.125 12.5625 C 21.984375 13.777344 21.9375 14.433594 21.84375 14.625 C 21.75 14.816406 21.398438 15.0625 20.46875 15 C 18.039063 14.835938 10.25 13.9375 10.25 13.9375 L 10.25 13.96875 C 9.308594 13.839844 8.367188 14.242188 7.875 14.90625 C 7.398438 15.550781 7.21875 16.308594 7.125 17.09375 C 7.125 17.09375 7.125 17.15625 7.125 17.15625 C 7.121094 17.179688 7.097656 17.195313 7.09375 17.21875 L 7.125 17.21875 C 7.113281 17.261719 6.691406 19.207031 6.0625 27.46875 C 6.054688 27.597656 6.042969 27.496094 6.03125 27.625 L 6.0625 27.625 C 6.011719 28.011719 6.054688 28.359375 6.0625 28.40625 C 6.1875 29.042969 6.539063 29.675781 7.125 29.96875 C 7.710938 30.261719 8.304688 30.183594 8.8125 30.03125 C 9.832031 29.726563 10.792969 29.046875 11.78125 28.34375 C 12.949219 27.515625 14.046875 27 15.3125 27 C 18.183594 27 20.46875 29.238281 20.46875 32 C 20.46875 34.761719 18.183594 37 15.3125 37 C 13.886719 37 13.078125 36.632813 11.71875 35.5625 C 10.960938 34.96875 10.074219 34.324219 9.125 33.96875 C 8.648438 33.792969 8.140625 33.6875 7.5625 33.8125 C 6.984375 33.9375 6.425781 34.414063 6.1875 35 C 5.941406 35.601563 5.953125 36.023438 6.03125 36.53125 C 6.035156 36.582031 6.027344 36.542969 6.03125 36.59375 C 6.621094 42.714844 6.917969 43.3125 7.125 44.21875 C 7.273438 44.867188 7.539063 45.527344 8.03125 46.0625 C 8.523438 46.597656 9.300781 47 10.15625 47 L 42.1875 47 C 43.300781 47 44.308594 46.632813 45 45.9375 C 45.691406 45.242188 46 44.277344 46 43.25 L 46 17.375 C 46 16.414063 45.644531 15.59375 45.09375 15.03125 C 44.542969 14.46875 43.863281 14.160156 43.21875 13.96875 C 43.097656 13.933594 42.96875 13.925781 42.84375 13.9375 C 42.84375 13.9375 35.316406 14.683594 32.59375 15 C 31.800781 15.089844 31.527344 14.914063 31.40625 14.65625 C 31.285156 14.398438 31.234375 13.667969 31.96875 12.5 C 32.523438 11.617188 32.949219 10.972656 33.25 10.28125 C 33.550781 9.589844 33.6875 8.863281 33.6875 8 C 33.6875 4.132813 30.488281 1 26.5625 1 Z M 26.5625 3 C 29.433594 3 31.6875 5.238281 31.6875 8 C 31.6875 8.664063 31.609375 9.035156 31.40625 9.5 C 31.203125 9.964844 30.839844 10.546875 30.28125 11.4375 C 29.34375 12.929688 29.046875 14.34375 29.59375 15.5 C 30.140625 16.65625 31.480469 17.152344 32.8125 17 C 35.398438 16.699219 42.386719 16.007813 42.78125 15.96875 C 43.171875 16.101563 43.515625 16.230469 43.6875 16.40625 C 43.882813 16.605469 44 16.824219 44 17.375 L 44 43.25 C 44 43.878906 43.824219 44.265625 43.5625 44.53125 C 43.300781 44.796875 42.902344 45 42.1875 45 L 10.15625 45 C 9.878906 45 9.722656 44.929688 9.53125 44.71875 C 9.339844 44.507813 9.148438 44.148438 9.0625 43.78125 C 8.804688 42.664063 8.628906 42.5625 8.03125 36.34375 C 8.023438 36.324219 8.011719 36.300781 8 36.28125 C 7.980469 36.171875 8.082031 35.625 8.03125 35.75 C 8.066406 35.75 8.199219 35.753906 8.4375 35.84375 C 8.980469 36.046875 9.78125 36.613281 10.46875 37.15625 C 12 38.359375 13.472656 39 15.3125 39 C 19.238281 39 22.46875 35.867188 22.46875 32 C 22.46875 28.132813 19.238281 25 15.3125 25 C 13.488281 25 11.953125 25.773438 10.625 26.71875 C 9.675781 27.394531 8.742188 27.976563 8.25 28.125 C 8.15625 28.152344 8.109375 28.152344 8.0625 28.15625 C 8.058594 28.128906 8.050781 28.121094 8.03125 28.03125 C 8.019531 27.96875 8.03125 27.921875 8.03125 27.90625 C 8.035156 27.863281 8.035156 27.824219 8.03125 27.78125 C 8.679688 19.132813 9.0625 17.5625 9.0625 17.5625 C 9.074219 17.523438 9.085938 17.480469 9.09375 17.4375 C 9.164063 16.789063 9.324219 16.292969 9.46875 16.09375 C 9.613281 15.894531 9.585938 15.875 9.96875 15.9375 C 9.988281 15.9375 10.011719 15.9375 10.03125 15.9375 C 10.03125 15.9375 17.722656 16.824219 20.34375 17 C 21.71875 17.09375 23.078125 16.683594 23.65625 15.5 C 24.234375 14.316406 23.8125 12.910156 22.75 11.40625 C 21.769531 10.023438 21.40625 9.273438 21.40625 8 C 21.40625 5.238281 23.691406 3 26.5625 3 Z " fill="#ffffff"/>
</g>
</svg>
