<?xml version="1.0" encoding="UTF-8"?>
<svg xmlns="http://www.w3.org/2000/svg" xmlns:xlink="http://www.w3.org/1999/xlink" viewBox="0 0 50 50" version="1.1" fill="#000000" width="50px" height="50px">
<g id="surface1" fill="#000000">
<path style=" " d="M 28.90625 8.96875 C 28.863281 8.976563 28.820313 8.988281 28.78125 9 C 28.316406 9.105469 27.988281 9.523438 28 10 L 28 10.84375 L 9.8125 10 C 8.804688 10 8 10.671875 8 11.5 C 8 12.328125 8.804688 13 9.8125 13 L 28 12.15625 L 28 14.4375 C 25.886719 15.097656 24.363281 16.441406 23.15625 18 L 9.59375 18 C 8.820313 16.230469 7.039063 15 5 15 C 2.25 15 0 17.25 0 20 C 0 22.75 2.25 25 5 25 C 6.648438 25 8.121094 24.203125 9.03125 22.96875 C 9.472656 23.085938 9.765625 23.15625 10.25 23.28125 C 13.253906 24.066406 16.875 25.011719 20 25.78125 L 20 28 C 20 29.835938 20.378906 31.28125 21.1875 32.375 C 21.996094 33.46875 23.191406 34.132813 24.5 34.5 C 27.117188 35.230469 30.386719 35 34 35 C 37.648438 35 41.457031 35.042969 44.53125 34.09375 C 46.070313 33.621094 47.441406 32.863281 48.4375 31.6875 C 49.433594 30.511719 50 28.933594 50 27 C 50 26.726563 49.898438 26.484375 49.875 26.21875 C 49.871094 26.1875 49.878906 26.15625 49.875 26.125 C 49.898438 25.933594 49.867188 25.738281 49.78125 25.5625 C 49.773438 25.53125 49.761719 25.5 49.75 25.46875 C 49.167969 22.3125 46.96875 19.578125 43.90625 17.625 C 42.550781 16.757813 40.929688 16.167969 39.3125 15.59375 C 39.125 15.375 38.851563 15.25 38.5625 15.25 C 38.554688 15.246094 38.539063 15.253906 38.53125 15.25 C 36.132813 14.496094 33.601563 14 31 14 C 30.648438 14 30.328125 14.03125 30 14.0625 L 30 12.15625 L 48.1875 13 C 49.195313 13 50 12.328125 50 11.5 C 50 10.671875 49.195313 10 48.1875 10 L 30 10.84375 L 30 10 C 30.011719 9.710938 29.894531 9.433594 29.6875 9.238281 C 29.476563 9.039063 29.191406 8.941406 28.90625 8.96875 Z M 31 16 C 32.101563 16 33.164063 16.28125 34.25 16.4375 C 34.011719 16.617188 33.699219 16.664063 33.5 16.90625 C 32.324219 18.347656 32 20.550781 32 24.25 C 32 25.503906 32.433594 26.710938 33.3125 27.59375 C 34.191406 28.476563 35.488281 29 37 29 C 41.09375 29 43.75 28.867188 45.65625 28.53125 C 46.535156 28.378906 47.257813 28.152344 47.875 27.875 C 47.742188 28.929688 47.433594 29.785156 46.90625 30.40625 C 46.230469 31.199219 45.238281 31.753906 43.9375 32.15625 C 41.335938 32.957031 37.648438 33 34 33 C 30.3125 33 27.085938 33.167969 25.03125 32.59375 C 24.003906 32.308594 23.300781 31.882813 22.8125 31.21875 C 22.324219 30.554688 22 29.554688 22 28 L 22 25 C 22 24.542969 21.691406 24.144531 21.25 24.03125 C 18.007813 23.238281 13.980469 22.1875 10.75 21.34375 C 9.136719 20.921875 7.722656 20.550781 6.6875 20.28125 C 6.222656 20.160156 5.855469 20.074219 5.5625 20 L 23.625 20 C 23.945313 20.003906 24.246094 19.851563 24.4375 19.59375 C 25.992188 17.429688 27.59375 16 31 16 Z M 5 17 C 5.882813 17 6.671875 17.398438 7.21875 18 L 4.78125 18 C 4.257813 18 3.769531 18.253906 3.46875 18.59375 C 3.167969 18.933594 3.007813 19.339844 2.96875 19.75 C 2.929688 20.160156 3.023438 20.601563 3.28125 21 C 3.53125 21.382813 3.976563 21.683594 4.46875 21.78125 C 4.492188 21.789063 4.554688 21.800781 4.59375 21.8125 C 4.675781 21.832031 4.789063 21.867188 4.9375 21.90625 C 5.234375 21.984375 5.671875 22.082031 6.1875 22.21875 C 6.347656 22.261719 6.636719 22.328125 6.8125 22.375 C 6.304688 22.757813 5.6875 23 5 23 C 3.332031 23 2 21.667969 2 20 C 2 18.332031 3.332031 17 5 17 Z M 38.25 17.28125 C 39.898438 17.828125 41.511719 18.464844 42.84375 19.3125 C 45.515625 21.015625 47.261719 23.203125 47.78125 25.59375 C 47.300781 26.007813 46.683594 26.320313 45.3125 26.5625 C 43.644531 26.855469 41.054688 27 37 27 C 35.925781 27 35.226563 26.667969 34.75 26.1875 C 34.273438 25.707031 34 25.042969 34 24.25 C 34 20.699219 34.457031 18.898438 35.0625 18.15625 C 35.363281 17.785156 35.691406 17.613281 36.25 17.46875 C 36.734375 17.34375 37.464844 17.292969 38.25 17.28125 Z M 48.09375 34.96875 C 48.019531 34.972656 47.945313 34.980469 47.875 35 C 47.503906 35.085938 47.210938 35.378906 47.125 35.75 C 47.128906 35.742188 47.105469 35.738281 47.09375 35.78125 C 47.070313 35.808594 46.992188 35.894531 46.65625 36.0625 C 45.925781 36.425781 44.121094 36.9375 40.375 36.9375 L 19.21875 36.9375 C 18.859375 36.933594 18.523438 37.121094 18.339844 37.433594 C 18.160156 37.746094 18.160156 38.128906 18.339844 38.441406 C 18.523438 38.753906 18.859375 38.941406 19.21875 38.9375 L 40.375 38.9375 C 44.289063 38.9375 46.359375 38.441406 47.5625 37.84375 C 48.164063 37.542969 48.546875 37.222656 48.78125 36.875 C 48.898438 36.703125 48.988281 36.523438 49.03125 36.375 C 49.074219 36.226563 49.0625 36.03125 49.0625 36.03125 C 49.078125 35.761719 48.984375 35.496094 48.804688 35.292969 C 48.621094 35.09375 48.363281 34.976563 48.09375 34.96875 Z " fill="#ffffff"/>
</g>
</svg>
