<?xml version="1.0" encoding="UTF-8"?>
<svg xmlns="http://www.w3.org/2000/svg" xmlns:xlink="http://www.w3.org/1999/xlink" viewBox="0 0 50 50" version="1.1" fill="#000000" width="50px" height="50px">
<g id="surface1" fill="#ffffff">
<path style=" " d="M 40.09375 0 C 39.796875 0.0390625 39.53125 0.210938 39.375 0.46875 L 37.75 3.15625 C 37.242188 3.117188 36.722656 3.113281 36.21875 3.15625 L 34.5625 0.5 C 34.296875 0.0820313 33.765625 -0.078125 33.3125 0.125 L 30.5 1.3125 C 30.042969 1.5 29.792969 1.988281 29.90625 2.46875 L 30.59375 5.5 C 30.210938 5.832031 29.863281 6.199219 29.53125 6.59375 L 26.46875 5.90625 C 25.992188 5.8125 25.515625 6.078125 25.34375 6.53125 L 24.1875 9.34375 C 23.984375 9.796875 24.144531 10.328125 24.5625 10.59375 L 27.21875 12.25 C 27.183594 12.761719 27.175781 13.277344 27.21875 13.78125 L 24.59375 15.4375 C 24.175781 15.703125 24.015625 16.234375 24.21875 16.6875 L 25.40625 19.5 C 25.589844 19.941406 26.0625 20.191406 26.53125 20.09375 L 29.59375 19.40625 C 29.925781 19.789063 30.292969 20.136719 30.6875 20.46875 L 30 23.53125 C 29.902344 24 30.152344 24.472656 30.59375 24.65625 L 33.4375 25.8125 C 33.882813 25.996094 34.394531 25.839844 34.65625 25.4375 L 36.34375 22.78125 C 36.867188 22.816406 37.390625 22.796875 37.90625 22.75 L 39.59375 25.40625 C 39.855469 25.808594 40.367188 25.964844 40.8125 25.78125 L 43.65625 24.59375 C 44.097656 24.394531 44.335938 23.910156 44.21875 23.4375 L 43.46875 20.375 C 43.84375 20.050781 44.207031 19.695313 44.53125 19.3125 L 47.625 19.96875 C 48.113281 20.078125 48.605469 19.8125 48.78125 19.34375 L 49.9375 16.53125 C 50.132813 16.070313 49.960938 15.539063 49.53125 15.28125 L 46.84375 13.625 C 46.878906 13.128906 46.851563 12.644531 46.8125 12.15625 L 49.46875 10.40625 C 49.882813 10.152344 50.054688 9.636719 49.875 9.1875 L 48.65625 6.375 C 48.46875 5.917969 47.980469 5.667969 47.5 5.78125 L 44.46875 6.53125 C 44.132813 6.140625 43.773438 5.773438 43.375 5.4375 L 44.03125 2.375 C 44.144531 1.894531 43.894531 1.40625 43.4375 1.21875 L 40.59375 0.0625 C 40.433594 0 40.261719 -0.0234375 40.09375 0 Z M 40.625 2.25 L 41.90625 2.78125 L 41.3125 5.5625 C 41.234375 5.941406 41.378906 6.328125 41.6875 6.5625 C 42.332031 7.035156 42.882813 7.597656 43.34375 8.21875 C 43.585938 8.550781 44.007813 8.699219 44.40625 8.59375 L 47.15625 7.90625 L 47.6875 9.1875 L 45.28125 10.75 C 44.949219 10.96875 44.777344 11.359375 44.84375 11.75 C 44.960938 12.511719 44.957031 13.277344 44.84375 14.0625 C 44.785156 14.460938 44.96875 14.851563 45.3125 15.0625 L 47.75 16.5625 L 47.21875 17.8125 L 44.4375 17.21875 C 44.042969 17.132813 43.636719 17.292969 43.40625 17.625 C 42.941406 18.265625 42.398438 18.816406 41.78125 19.28125 C 41.460938 19.519531 41.316406 19.925781 41.40625 20.3125 L 42.09375 23.09375 L 40.8125 23.625 L 39.25 21.21875 C 39.039063 20.875 38.648438 20.691406 38.25 20.75 C 37.492188 20.875 36.726563 20.890625 35.9375 20.78125 C 35.539063 20.722656 35.148438 20.90625 34.9375 21.25 L 33.40625 23.65625 L 32.125 23.125 L 32.75 20.375 C 32.839844 19.988281 32.695313 19.582031 32.375 19.34375 C 31.730469 18.875 31.152344 18.339844 30.6875 17.71875 C 30.453125 17.410156 30.066406 17.265625 29.6875 17.34375 L 26.9375 17.96875 L 26.375 16.65625 L 28.75 15.1875 C 29.09375 14.976563 29.277344 14.585938 29.21875 14.1875 C 29.09375 13.414063 29.074219 12.605469 29.1875 11.8125 C 29.234375 11.425781 29.050781 11.046875 28.71875 10.84375 L 26.34375 9.34375 L 26.875 8.0625 L 29.59375 8.65625 C 29.980469 8.746094 30.386719 8.601563 30.625 8.28125 C 31.101563 7.632813 31.65625 7.0625 32.28125 6.59375 C 32.589844 6.359375 32.734375 5.972656 32.65625 5.59375 L 32.03125 2.84375 L 33.3125 2.3125 L 34.8125 4.6875 C 35.03125 5.019531 35.421875 5.191406 35.8125 5.125 C 36.578125 5.003906 37.367188 5.007813 38.15625 5.125 C 38.554688 5.183594 38.945313 5 39.15625 4.65625 Z M 36.96875 7.875 C 34.984375 7.90625 33.101563 9.085938 32.3125 11.03125 C 31.257813 13.625 32.53125 16.632813 35.125 17.6875 C 37.71875 18.742188 40.695313 17.46875 41.75 14.875 C 42.804688 12.28125 41.5625 9.304688 38.96875 8.25 C 38.320313 7.988281 37.628906 7.863281 36.96875 7.875 Z M 37 9.84375 C 37.402344 9.839844 37.820313 9.933594 38.21875 10.09375 C 39.8125 10.742188 40.554688 12.53125 39.90625 14.125 C 39.261719 15.714844 37.46875 16.460938 35.875 15.8125 C 34.28125 15.164063 33.539063 13.375 34.1875 11.78125 C 34.511719 10.984375 35.117188 10.402344 35.84375 10.09375 C 36.207031 9.941406 36.597656 9.847656 37 9.84375 Z M 14.34375 17 C 13.917969 17.078125 13.59375 17.417969 13.53125 17.84375 L 12.90625 21.875 C 12.1875 22.09375 11.5 22.375 10.84375 22.71875 L 7.5 20.34375 C 7.105469 20.058594 6.566406 20.101563 6.21875 20.4375 L 3.46875 23.1875 C 3.132813 23.535156 3.089844 24.074219 3.375 24.46875 L 5.71875 27.8125 C 5.375 28.464844 5.101563 29.160156 4.875 29.875 L 0.84375 30.5625 C 0.363281 30.636719 0.0078125 31.046875 0 31.53125 L 0 35.40625 C -0.0078125 35.894531 0.335938 36.316406 0.8125 36.40625 L 4.84375 37.09375 C 5.070313 37.832031 5.359375 38.515625 5.71875 39.1875 L 3.34375 42.5 C 3.058594 42.894531 3.101563 43.433594 3.4375 43.78125 L 6.1875 46.53125 C 6.535156 46.867188 7.074219 46.910156 7.46875 46.625 L 10.8125 44.28125 C 11.464844 44.625 12.160156 44.902344 12.875 45.125 L 13.53125 49.15625 C 13.609375 49.648438 14.035156 50.007813 14.53125 50 L 18.40625 50 C 18.894531 50.007813 19.316406 49.664063 19.40625 49.1875 L 20.125 45.09375 C 20.832031 44.871094 21.511719 44.59375 22.15625 44.25 L 25.53125 46.625 C 25.925781 46.910156 26.464844 46.867188 26.8125 46.53125 L 29.5625 43.78125 C 29.898438 43.433594 29.941406 42.894531 29.65625 42.5 L 27.25 39.125 C 27.589844 38.472656 27.875 37.808594 28.09375 37.09375 L 32.1875 36.40625 C 32.664063 36.316406 33.007813 35.894531 33 35.40625 L 33 31.53125 C 32.992188 31.046875 32.636719 30.636719 32.15625 30.5625 L 28.0625 29.875 C 27.84375 29.175781 27.585938 28.511719 27.25 27.875 L 29.625 24.46875 C 29.910156 24.074219 29.867188 23.535156 29.53125 23.1875 L 26.78125 20.4375 C 26.433594 20.101563 25.894531 20.058594 25.5 20.34375 L 22.15625 22.75 C 21.503906 22.40625 20.808594 22.128906 20.09375 21.90625 L 19.40625 17.84375 C 19.328125 17.351563 18.902344 16.992188 18.40625 17 L 14.53125 17 C 14.5 17 14.46875 17 14.4375 17 C 14.40625 17 14.375 17 14.34375 17 Z M 15.40625 19 L 17.5625 19 L 18.21875 22.75 C 18.28125 23.148438 18.578125 23.46875 18.96875 23.5625 C 19.96875 23.8125 20.921875 24.199219 21.78125 24.71875 C 22.121094 24.925781 22.550781 24.914063 22.875 24.6875 L 25.96875 22.46875 L 27.5 24 L 25.3125 27.15625 C 25.074219 27.476563 25.050781 27.90625 25.25 28.25 C 25.765625 29.109375 26.15625 30.035156 26.40625 31.03125 C 26.5 31.421875 26.820313 31.71875 27.21875 31.78125 L 31 32.40625 L 31 34.5625 L 27.21875 35.21875 C 26.820313 35.28125 26.5 35.578125 26.40625 35.96875 C 26.160156 36.964844 25.765625 37.894531 25.25 38.75 C 25.039063 39.101563 25.0625 39.546875 25.3125 39.875 L 27.53125 42.96875 L 26 44.5 L 22.875 42.3125 C 22.550781 42.085938 22.121094 42.074219 21.78125 42.28125 C 20.929688 42.800781 19.96875 43.183594 18.96875 43.4375 C 18.589844 43.542969 18.308594 43.863281 18.25 44.25 L 17.5625 48 L 15.375 48 L 14.75 44.25 C 14.675781 43.863281 14.382813 43.558594 14 43.46875 C 12.996094 43.222656 12.050781 42.800781 11.1875 42.28125 C 10.851563 42.097656 10.4375 42.121094 10.125 42.34375 L 7 44.5 L 5.46875 42.96875 L 7.65625 39.90625 C 7.898438 39.574219 7.910156 39.128906 7.6875 38.78125 C 7.164063 37.914063 6.78125 36.976563 6.53125 35.96875 C 6.4375 35.578125 6.117188 35.28125 5.71875 35.21875 L 2 34.5625 L 2 32.375 L 5.71875 31.75 C 6.105469 31.691406 6.425781 31.410156 6.53125 31.03125 C 6.785156 30.019531 7.164063 29.054688 7.6875 28.1875 C 7.894531 27.847656 7.882813 27.417969 7.65625 27.09375 L 5.5 24 L 7.03125 22.4375 L 10.125 24.65625 C 10.449219 24.882813 10.878906 24.894531 11.21875 24.6875 C 12.078125 24.171875 13.027344 23.808594 14.03125 23.5625 C 14.421875 23.46875 14.71875 23.148438 14.78125 22.75 Z M 16.5 27.34375 C 13.105469 27.34375 10.34375 30.105469 10.34375 33.5 C 10.34375 36.894531 13.105469 39.65625 16.5 39.65625 C 19.894531 39.65625 22.65625 36.894531 22.65625 33.5 C 22.65625 30.105469 19.894531 27.34375 16.5 27.34375 Z M 16.5 29.34375 C 18.8125 29.34375 20.65625 31.1875 20.65625 33.5 C 20.65625 35.8125 18.8125 37.65625 16.5 37.65625 C 14.1875 37.65625 12.34375 35.8125 12.34375 33.5 C 12.34375 31.1875 14.1875 29.34375 16.5 29.34375 Z " fill="#ffffff"/>
</g>
</svg>
