<?xml version="1.0" encoding="UTF-8"?>
<svg xmlns="http://www.w3.org/2000/svg" xmlns:xlink="http://www.w3.org/1999/xlink" viewBox="0 0 50 50" version="1.1" fill="#000000" width="50px" height="50px">
<g id="surface1" fill="#000000">
<path style=" " d="M 49.03125 0.96875 L 47.96875 1 C 47.96875 1 40.617188 1.097656 33.53125 4.625 C 31.253906 5.761719 28.964844 7.320313 26.90625 9.375 C 24.371094 11.910156 20.792969 16.070313 17.53125 20 L 9 20 C 8.96875 20 8.9375 20 8.90625 20 C 8.636719 20.027344 8.386719 20.160156 8.21875 20.375 L 3.21875 26.375 C 3.007813 26.640625 2.941406 26.996094 3.050781 27.316406 C 3.15625 27.636719 3.421875 27.882813 3.75 27.96875 L 9.84375 29.5 C 9.796875 29.558594 9.5 29.9375 9.5 29.9375 L 9.375 30.0625 L 9.3125 30.25 C 9.3125 30.25 9.226563 30.601563 9.25 30.9375 C 9.257813 31.0625 9.28125 31.226563 9.3125 31.375 L 7.15625 35 C 7.15625 35 7.058594 35.195313 7.03125 35.3125 C 7.003906 35.429688 6.996094 35.574219 7 35.71875 C 7.007813 36.007813 7.078125 36.332031 7.25 36.71875 C 7.59375 37.492188 8.328125 38.515625 9.90625 40.09375 C 11.484375 41.667969 12.503906 42.40625 13.28125 42.75 C 13.667969 42.921875 13.992188 42.992188 14.28125 43 C 14.425781 43.003906 14.570313 42.996094 14.6875 42.96875 C 14.804688 42.941406 15 42.84375 15 42.84375 L 18.65625 40.6875 C 18.792969 40.714844 18.949219 40.742188 19.0625 40.75 C 19.398438 40.773438 19.75 40.6875 19.75 40.6875 L 19.9375 40.625 L 20.09375 40.5 C 20.09375 40.5 20.449219 40.226563 20.5 40.1875 L 22.03125 46.25 C 22.117188 46.578125 22.363281 46.84375 22.683594 46.949219 C 23.003906 47.058594 23.359375 46.992188 23.625 46.78125 L 29.625 41.78125 C 29.863281 41.589844 30 41.304688 30 41 L 30 32.4375 C 33.957031 29.148438 38.144531 25.574219 40.625 23.09375 C 42.671875 21.042969 44.207031 18.75 45.34375 16.46875 C 48.855469 9.394531 49 2.03125 49 2.03125 Z M 46.875 3.125 C 46.792969 4.628906 46.398438 9.875 43.5625 15.59375 C 42.507813 17.714844 41.09375 19.8125 39.21875 21.6875 C 36.78125 24.125 32.492188 27.78125 28.5 31.09375 C 28.417969 31.144531 28.34375 31.207031 28.28125 31.28125 C 23.605469 35.15625 19.386719 38.511719 19.125 38.71875 C 19.007813 38.707031 18.824219 38.695313 18.5 38.5625 C 17.753906 38.257813 16.445313 37.476563 14.5 35.53125 C 12.554688 33.585938 11.742188 32.246094 11.4375 31.5 C 11.304688 31.175781 11.292969 30.992188 11.28125 30.875 C 11.488281 30.613281 14.796875 26.441406 18.65625 21.78125 C 18.761719 21.695313 18.84375 21.589844 18.90625 21.46875 C 22.183594 17.515625 25.816406 13.277344 28.3125 10.78125 C 30.195313 8.898438 32.289063 7.496094 34.40625 6.4375 C 40.132813 3.589844 45.375 3.203125 46.875 3.125 Z M 34 11 C 31.25 11 29 13.25 29 16 C 29 18.75 31.25 21 34 21 C 36.75 21 39 18.75 39 16 C 39 13.25 36.75 11 34 11 Z M 34 13 C 35.667969 13 37 14.332031 37 16 C 37 17.667969 35.667969 19 34 19 C 32.332031 19 31 17.667969 31 16 C 31 14.332031 32.332031 13 34 13 Z M 9.46875 22 L 15.875 22 C 13.957031 24.339844 12.378906 26.328125 11.21875 27.78125 L 5.78125 26.40625 Z M 10.3125 33.59375 C 10.882813 34.507813 11.71875 35.59375 13.0625 36.9375 C 14.402344 38.277344 15.492188 39.117188 16.40625 39.6875 L 14.25 40.96875 C 14.21875 40.960938 14.222656 40.964844 14.09375 40.90625 C 13.683594 40.726563 12.789063 40.160156 11.3125 38.6875 C 9.839844 37.210938 9.273438 36.316406 9.09375 35.90625 C 9.035156 35.777344 9.039063 35.78125 9.03125 35.75 Z M 28 34.125 L 28 40.53125 L 23.59375 44.21875 L 22.21875 38.8125 C 23.667969 37.652344 25.636719 36.070313 28 34.125 Z M 6.40625 38.21875 C 4.773438 39.472656 3.296875 39.632813 1.96875 40.9375 C 1.304688 41.589844 0.777344 42.515625 0.46875 43.78125 C 0.160156 45.046875 0.03125 46.679688 0.03125 48.96875 L 0.03125 49.96875 L 1.03125 49.96875 C 5.625 49.96875 7.871094 49.242188 9.21875 47.875 C 10.566406 46.507813 10.789063 44.984375 11.8125 43.59375 L 10.1875 42.40625 C 8.890625 44.171875 8.601563 45.636719 7.78125 46.46875 C 7.058594 47.203125 5.449219 47.742188 2.125 47.875 C 2.175781 46.421875 2.246094 45.027344 2.4375 44.25 C 2.6875 43.238281 2.992188 42.75 3.375 42.375 C 4.136719 41.625 5.628906 41.289063 7.59375 39.78125 Z M 14.09375 41.0625 L 14 41.125 L 14 41.09375 C 14 41.09375 14.054688 41.078125 14.09375 41.0625 Z " fill="#ffffff"/>
</g>
</svg>
