<?xml version="1.0" encoding="UTF-8" standalone="no"?>
<!-- Created with Inkscape (http://www.inkscape.org/) -->

<svg xmlns:dc="http://purl.org/dc/elements/1.1/" xmlns:cc="http://creativecommons.org/ns#" xmlns:rdf="http://www.w3.org/1999/02/22-rdf-syntax-ns#" xmlns:svg="http://www.w3.org/2000/svg" xmlns="http://www.w3.org/2000/svg" xmlns:sodipodi="http://sodipodi.sourceforge.net/DTD/sodipodi-0.dtd" xmlns:inkscape="http://www.inkscape.org/namespaces/inkscape" version="1.1" inkscape:version="0.48.4 r9939" width="128" height="128" id="svg2" sodipodi:docname="flightgear.svg" inkscape:export-filename="/WIN/G/Misc/FG/fgcom/icon/ico/flightgear_128.png" inkscape:export-xdpi="90" inkscape:export-ydpi="90">
  <metadata id="metadata60">
    <rdf:RDF>
      <cc:Work rdf:about="">
        <dc:format>image/svg+xml</dc:format>
        <dc:type rdf:resource="http://purl.org/dc/dcmitype/StillImage" />
        <dc:title></dc:title>
      </cc:Work>
    </rdf:RDF>
  </metadata>
  <defs id="defs58" />
  <sodipodi:namedview pagecolor="#ffffff" bordercolor="#666666" borderopacity="1" objecttolerance="10" gridtolerance="10" guidetolerance="10" inkscape:pageopacity="0" inkscape:pageshadow="2" inkscape:window-width="1920" inkscape:window-height="1038" id="namedview56" showgrid="false" borderlayer="true" inkscape:snap-bbox="true" inkscape:bbox-paths="true" inkscape:bbox-nodes="true" inkscape:snap-bbox-edge-midpoints="true" inkscape:snap-bbox-midpoints="true" inkscape:snap-nodes="true" inkscape:object-paths="true" inkscape:snap-intersection-paths="true" inkscape:object-nodes="true" inkscape:snap-smooth-nodes="true" inkscape:snap-midpoints="true" inkscape:snap-object-midpoints="true" inkscape:snap-center="true" inkscape:snap-page="true" inkscape:zoom="2.9596211" inkscape:cx="69.644666" inkscape:cy="79.519578" inkscape:window-x="0" inkscape:window-y="13" inkscape:window-maximized="1" inkscape:current-layer="layer1" showguides="true" inkscape:guide-bbox="true">
    <sodipodi:guide position="0,0" orientation="0,128" id="guide6073" />
    <sodipodi:guide position="128,0" orientation="-128,0" id="guide6075" />
    <sodipodi:guide position="128,128" orientation="0,-128" id="guide6077" />
    <sodipodi:guide position="0,128" orientation="128,0" id="guide6079" />
    <sodipodi:guide orientation="0,1" position="48,16" id="guide6921" />
    <sodipodi:guide orientation="0,1" position="48,112" id="guide6923" />
    <sodipodi:guide orientation="1,0" position="58,108" id="guide6931" />
    <sodipodi:guide orientation="1,0" position="81,94" id="guide6933" />
    <sodipodi:guide orientation="1,0" position="120,98" id="guide6935" />
    <sodipodi:guide orientation="1,0" position="114,72" id="guide6937" />
    <sodipodi:guide orientation="0,1" position="110,76" id="guide6939" />
    <sodipodi:guide orientation="0,1" position="118,94" id="guide6957" />
    <sodipodi:guide orientation="0,1" position="114,58" id="guide6959" />
    <sodipodi:guide orientation="1,0" position="118,66.074524" id="guide6961" />
    <sodipodi:guide orientation="0,1" position="81,20" id="guide6965" />
    <sodipodi:guide orientation="0,1" position="58,108" id="guide6967" />
    <sodipodi:guide orientation="1,0" position="62,112" id="guide6969" />
    <sodipodi:guide orientation="1,0" position="77,16" id="guide6971" />
    <sodipodi:guide orientation="1,0" position="116,94" id="guide6975" />
    <sodipodi:guide orientation="0,1" position="118,62" id="guide6977" />
    <sodipodi:guide orientation="0,1" position="118,72" id="guide6979" />
  </sodipodi:namedview>
  <g inkscape:groupmode="layer" id="layer1" inkscape:label="base" style="display:inline">
    <rect y="0" x="0" height="200" width="200" style="fill:#faf8fe;fill-opacity:1;stroke:none" id="rect4" transform="scale(0.64,0.64)" />
  </g>
  <g inkscape:groupmode="layer" id="layer2" inkscape:label="F" style="display:inline;opacity:1">
    <path style="fill:#427ebf;fill-opacity:1;stroke:none;display:inline" d="m 93.75,168.75 c 0,-41.21924 0,-93.695541 0,-137.5 0,-2.946278 3.303722,-6.25 6.25,-6.25 31.25,0 58.99342,0 84.375,0 2.94628,0 6.23758,3.303748 6.25,6.25 0.0212,5.028186 0.003,10.782217 0,15.625 -0.002,2.946278 -3.30372,6.25 -6.25,6.25 -18.37106,0 -54.6875,0 -54.6875,0 l 0,28.125 c 0,0 34.64048,0 51.5625,0 2.94628,0 6.25,3.303722 6.25,6.25 0,5.738844 0,10.674082 0,15.625 0,2.94628 -3.30372,6.25 -6.25,6.25 -15.92553,0 -51.5625,0 -51.5625,0 0,0 0,39.97752 0,59.375 0,2.94628 -3.30372,6.25 -6.25,6.25 -8.19113,0 -15.45494,0.0122 -23.4375,0 -2.946275,-0.005 -6.25,-3.30372 -6.25,-6.25 z" inkscape:connector-curvature="0" sodipodi:nodetypes="sssssssccsssscssss" id="path54" transform="matrix(0.64,0,0,0.64,-2,0)" />
  </g>
  <g inkscape:groupmode="layer" id="layer3" inkscape:label="checkers" style="display:inline">
    <g style="display:inline" id="g6047">
      <rect y="0" x="0" height="128" width="48" id="rect6826" style="fill:#fdfe4a;fill-opacity:1;fill-rule:evenodd;stroke:none;display:inline" />
      <rect y="0" x="32" height="16" width="16" id="rect7288" style="fill:#feff47;fill-opacity:1;fill-rule:evenodd;stroke:none" />
      <path inkscape:connector-curvature="0" d="m 32.25,112 0,8 0,8 8,0 8,0 0,-8 0,-8 -8,0 z m 16,-112 0,8 0,8 8,0 8,0 0,-8 0,-8 -8,0 z m 16,16 0,8 0,8 8,0 8,0 0,-8 0,-8 -8,0 z m 0,16 -8,0 -8,0 0,8 0,8 8,0 8,0 0,-8 z m 0,16 0,8 0,8 8,0 8,0 0,-8 0,-8 -8,0 z m 0,16 -8,0 -8,0 0,8 0,8 8,0 8,0 0,-8 z m 0,16 0,8 0,8 8,0 8,0 0,-8 0,-8 -8,0 z m 0,16 -8,0 -8,0 0,8 0,8 8,0 8,0 0,-8 z m 0,16 0,8 0,8 8,0 8,0 0,-8 0,-8 -8,0 z m -16,-16 0,-8 0,-8 -8,0 -8,0 0,8 0,8 8,0 z m 0,-32 0,-8 0,-8 -8,0 -8,0 0,8 0,8 8,0 z m 0,-32 0,-8 0,-8 -8,0 -8,0 0,8 0,8 8,0 z" style="fill:#000000;fill-opacity:1" transform="translate(-32.25,0)" id="path6823" />
    </g>
  </g>
</svg>
